<svg id="Layer_1" data-name="Layer 1" xmlns="http://www.w3.org/2000/svg" viewBox="0 0 3830.2 1119.89"><defs><style>.cls-1{fill:#512bd4;}.cls-2{fill:#fff;}.cls-3{fill:#6ad7e5;}.cls-4,.cls-6,.cls-8{fill:none;stroke-linecap:round;stroke-linejoin:round;}.cls-4,.cls-8{stroke:#000;}.cls-4,.cls-6{stroke-width:6px;}.cls-5{fill:#f6d2a2;}.cls-6{stroke:#231f20;}.cls-7{fill:#c6b198;}.cls-8{stroke-width:3px;}.cls-9{fill:#21a366;}.cls-10{fill:#107c41;}.cls-11{fill:#33c481;}.cls-12{fill:#185c37;}.cls-13{fill:#165634;}.cls-14{fill:#13452b;}.cls-15{fill:#53cad7;}.cls-16{fill:#5e5e5e;}</style></defs><g id="Layer_2" data-name="Layer 2"><g id="Layer_1-2" data-name="Layer 1-2"><path class="cls-1" d="M856,560.42l173.18-48.17,48.17,173.18L904.2,733.6Z" transform="translate(0 0)"/><path class="cls-2" d="M917.67,662.48a4.51,4.51,0,0,1-3.46-.36,4.19,4.19,0,0,1-2.12-2.62,4.25,4.25,0,0,1,.45-3.37,4.72,4.72,0,0,1,6.28-1.75A4.17,4.17,0,0,1,921,657a4.12,4.12,0,0,1-.49,3.35,4.55,4.55,0,0,1-2.81,2.1m48.76-14.31-8,2.22L928.3,623.14a16.05,16.05,0,0,1-2-2.24l-.18.05a50,50,0,0,1,2,6.11l8.21,29.51-7,2-12.52-45,8.48-2.36,29.25,26.66c1.23,1.1,2,1.87,2.42,2.3l.12,0a42.21,42.21,0,0,1-2-6l-8.07-29,7-2Zm34.29-9.53-24.64,6.85-12.52-45,23.66-6.58,1.76,6.34-16.37,4.56,3.54,12.74,15.09-4.2,1.76,6.31-15.09,4.2,3.7,13.31L999,632.33ZM1025,590.23l-12.62,3.5,10.76,38.67-7.29,2-10.75-38.67-12.58,3.5-1.77-6.34,32.48-9Z" transform="translate(0 0)"/><g id="Graphic_2" data-name="Graphic 2"><path class="cls-3" d="M772.34,48.12c85-76.64,187,60.54,83.4,110.78Z" transform="translate(0 0)"/></g><g id="Graphic_3" data-name="Graphic 3"><path class="cls-4" d="M772.34,48.12c85-76.64,187,60.54,83.4,110.78Z" transform="translate(0 0)"/></g><g id="Graphic_4" data-name="Graphic 4"><path class="cls-3" d="M261.67,194.21C145.26,154.6,241.2,9,332.77,75.94Z" transform="translate(0 0)"/></g><g id="Graphic_5" data-name="Graphic 5"><path class="cls-4" d="M261.67,194.21C145.26,154.6,241.2,9,332.77,75.94Z" transform="translate(0 0)"/></g><g id="Graphic_6" data-name="Graphic 6"><path d="M840,116c13.57-11.28,22.43-24.64,9.37-40.33-12.12-14.54-27.82-9.37-41.41,2Z" transform="translate(0 0)"/></g><g id="Graphic_7" data-name="Graphic 7"><path d="M275.24,153.21c-15.17-9.06-26-20.89-15.46-38.42,9.73-16.22,26-13.5,41.19-4.44Z" transform="translate(0 0)"/></g><g id="Graphic_8" data-name="Graphic 8"><path class="cls-3" d="M555.67,3.15C674.12,1.22,785.48,16.34,845.21,129.23c54,126.7,37.8,264.6,47.9,399.31,8.68,115.67,25.95,249.2-26,357.33-54.64,113.78-195.41,144.5-311.81,142.21-91.44-1.81-202.3-29.83-255.2-112.41-62.08-96.94-35.77-243-33.21-352,3.13-129.21-39.12-258,1.24-385,41.81-131.75,160-163.3,287.54-175.5" transform="translate(0 0)"/></g><g id="Graphic_9" data-name="Graphic 9"><path class="cls-4" d="M555.67,3.15C674.12,1.22,785.48,16.34,845.21,129.23c54,126.7,37.8,264.6,47.9,399.31,8.68,115.67,25.95,249.2-26,357.33-54.64,113.78-195.41,144.5-311.81,142.21-91.44-1.81-202.3-29.83-255.2-112.41-62.08-96.94-35.77-243-33.21-352,3.13-129.21-39.12-258,1.24-385,41.81-131.75,160-163.3,287.54-175.5" transform="translate(0 0)"/></g><g id="Graphic_10" data-name="Graphic 10"><path class="cls-5" d="M526.09,250.9c-23.66,2.4-42.5,30.87-29.85,52.93C513,333,548.87,300.34,571.58,303c26.07.08,47.86,26.82,68.42,3.8,22.86-25.61-10.86-49.65-37.06-60.21Z" transform="translate(0 0)"/></g><g id="Graphic_11" data-name="Graphic 11"><path class="cls-6" d="M526.09,250.9c-23.66,2.4-42.5,30.87-29.85,52.93C513,333,548.87,300.34,571.58,303c26.07.08,47.86,26.82,68.42,3.8,22.86-25.61-10.86-49.65-37.06-60.21Z" transform="translate(0 0)"/></g><g id="Graphic_12" data-name="Graphic 12"><path d="M523.08,249.78c-2.44-40.94,75.67-47.33,85.45-13.22S527.42,280.07,523.08,249.78Z" transform="translate(0 0)"/></g><g id="Graphic_13" data-name="Graphic 13"><path class="cls-2" d="M606.27,308.47c.32,16.07,4.18,34,1.47,51.24-4,7.83-12,8.8-18.93,12A28.19,28.19,0,0,1,567,355.31c-2.79-19.49.33-38.46.59-57.94Z" transform="translate(0 0)"/></g><g id="Graphic_14" data-name="Graphic 14"><path class="cls-4" d="M606.27,308.47c.32,16.07,4.18,34,1.47,51.24-4,7.83-12,8.8-18.93,12A28.19,28.19,0,0,1,567,355.31c-2.79-19.49.33-38.46.59-57.94Z" transform="translate(0 0)"/></g><g id="Graphic_15" data-name="Graphic 15"><path class="cls-2" d="M337.93,186.61c29.35,107.18,201.24,76.86,193-31.05C521,26.38,309.39,54.8,337.93,186.61" transform="translate(0 0)"/></g><g id="Graphic_16" data-name="Graphic 16"><path class="cls-4" d="M337.93,186.61c29.35,107.18,201.24,76.86,193-31.05C521,26.38,309.39,54.8,337.93,186.61" transform="translate(0 0)"/></g><g id="Graphic_17" data-name="Graphic 17"><path class="cls-2" d="M579.12,162.7C602.38,286,804,250,772.93,125.81,745.07,14.35,570.17,48.17,579.12,162.7" transform="translate(0 0)"/></g><g id="Graphic_18" data-name="Graphic 18"><path class="cls-4" d="M579.12,162.7C602.38,286,804,250,772.93,125.81,745.07,14.35,570.17,48.17,579.12,162.7" transform="translate(0 0)"/></g><g id="Graphic_19" data-name="Graphic 19"><path class="cls-7" d="M951.3,557.75c-4.53-1.62-9.32-2.73-12.45-6.72" transform="translate(0 0)"/></g><g id="Graphic_20" data-name="Graphic 20"><path class="cls-4" d="M951.3,557.75c-4.53-1.62-9.32-2.73-12.45-6.72" transform="translate(0 0)"/></g><g id="Graphic_21" data-name="Graphic 21"><path class="cls-2" d="M522.76,310.27c-12.18,31,8.59,92.2,42.29,46.21-2.79-19.48.33-38.45.59-57.94Z" transform="translate(0 0)"/></g><g id="Graphic_22" data-name="Graphic 22"><path class="cls-4" d="M522.76,310.27c-12.18,31,8.59,92.2,42.29,46.21-2.79-19.48.33-38.45.59-57.94Z" transform="translate(0 0)"/></g><g id="Graphic_23" data-name="Graphic 23"><path class="cls-5" d="M958.78,544.49c-1,30.91-32.13,17.14-46.28,7.67-13.42-8.94-17.18-1.29-18.61-19.32-.94-11.88-2.52-23.76-2-35.73,20-2.16,42,2.29,58.6,14,8.56,6,24.74,25.44,8.31,33.42" transform="translate(0 0)"/></g><g id="Graphic_24" data-name="Graphic 24"><path class="cls-4" d="M958.78,544.49c-1,30.91-32.13,17.14-46.28,7.67-13.42-8.94-17.18-1.29-18.61-19.32-.94-11.88-2.52-23.76-2-35.73,20-2.16,42,2.29,58.6,14,8.56,6,24.74,25.44,8.31,33.42" transform="translate(0 0)"/></g><g id="Graphic_25" data-name="Graphic 25"><path class="cls-4" d="M858.27,1024.57c-5.47-10.44-7.45-22.7-16.39-31" transform="translate(0 0)"/></g><g id="Graphic_26" data-name="Graphic 26"><path class="cls-5" d="M825.37,944.29c24,14.32,68.25,58.14,32.9,80.28-33.79,32-54-33.59-84.3-42.25C786.7,964.52,802.85,948.23,825.37,944.29Z" transform="translate(0 0)"/></g><g id="Graphic_27" data-name="Graphic 27"><path class="cls-4" d="M825.37,944.29c24,14.32,68.25,58.14,32.9,80.28-33.79,32-54-33.59-84.3-42.25C786.7,964.52,802.85,948.23,825.37,944.29Z" transform="translate(0 0)"/></g><g id="Graphic_28" data-name="Graphic 28"><path d="M703.32,170c11.4,12.1,11.67,32.07.73,44.6s-29.13,12.78-40.45.63-11.68-32.07-.73-44.6S692,157.85,703.32,170" transform="translate(0 0)"/></g><g id="Graphic_29" data-name="Graphic 29"><path class="cls-2" d="M692.54,199.27a9.14,9.14,0,0,1,.21,11.35,6,6,0,0,1-8.39,1.27,6.32,6.32,0,0,1-1.17-1.14A9.14,9.14,0,0,1,683,199.4a6,6,0,0,1,8.39-1.27,6.32,6.32,0,0,1,1.17,1.14" transform="translate(0 0)"/></g><g id="Graphic_30" data-name="Graphic 30"><path d="M450.11,186.56c11.54,12.14,11.88,32.12.74,44.6A27.58,27.58,0,0,1,411.94,234a26.08,26.08,0,0,1-2.27-2.19c-11.54-12.14-11.88-32.12-.73-44.6a27.59,27.59,0,0,1,38.9-2.88,26.2,26.2,0,0,1,2.27,2.2" transform="translate(0 0)"/></g><g id="Graphic_31" data-name="Graphic 31"><path class="cls-2" d="M439,219.74a9.11,9.11,0,0,1,.2,11.35,6.22,6.22,0,0,1-8.73,1.1,6.63,6.63,0,0,1-1-.94,9.11,9.11,0,0,1-.21-11.35,6.15,6.15,0,0,1,8.61-1.22,5.81,5.81,0,0,1,1.1,1.06" transform="translate(0 0)"/></g><g id="Graphic_32" data-name="Graphic 32"><path class="cls-7" d="M202,573.86c4.46-1.74,9.22-3,12.18-7.12" transform="translate(0 0)"/></g><g id="Graphic_33" data-name="Graphic 33"><path class="cls-8" d="M202,573.86c4.46-1.74,9.22-3,12.18-7.12" transform="translate(0 0)"/></g><g id="Graphic_34" data-name="Graphic 34"><path class="cls-5" d="M201.42,573.74c2,30.89,32.66,16.11,46.48,6.17,13.13-9.39,17.13-1.85,18-19.92.55-11.89,1.76-23.83.91-35.76-20.13-1.48-41.86,3.64-58.13,15.86-8.36,6.31-23.93,26.22-7.25,33.65" transform="translate(0 0)"/></g><g id="Graphic_35" data-name="Graphic 35"><path class="cls-4" d="M201.42,573.74c2,30.89,32.66,16.11,46.48,6.17,13.13-9.39,17.13-1.85,18-19.92.55-11.89,1.76-23.83.91-35.76-20.13-1.48-41.86,3.64-58.13,15.86-8.36,6.31-23.93,26.22-7.25,33.65" transform="translate(0 0)"/></g><g id="Group_93" data-name="Group 93"><g id="Graphic_36" data-name="Graphic 36"><path class="cls-9" d="M380.76,571.4h-203c-14,0-25.41,11.69-25.41,26.14v111L380.76,845.67,495,895.29l114.21-49.62V708.56Z" transform="translate(0 0)"/></g><g id="Graphic_37" data-name="Graphic 37"><rect class="cls-10" x="152.3" y="708.51" width="228.46" height="137.11"/></g><g id="Graphic_38" data-name="Graphic 38"><path class="cls-11" d="M583.87,571.4H380.81V708.51H609.27v-111A26.71,26.71,0,0,0,601.84,579,24.7,24.7,0,0,0,583.87,571.4Z" transform="translate(0 0)"/></g><g id="Graphic_39" data-name="Graphic 39"><path class="cls-12" d="M380.76,845.62H152.3v248.13c0,14.45,11.36,26.14,25.41,26.14H583.87c14,0,25.4-11.69,25.4-26.14v-111Z" transform="translate(0 0)"/></g><g id="Graphic_40" data-name="Graphic 40"><rect class="cls-10" x="380.76" y="845.62" width="228.46" height="137.11"/></g><g id="Graphic_41" data-name="Graphic 41"><path class="cls-13" d="M298.26,701.44h-146v333h146c14-.06,25.35-11.69,25.4-26.14V727.58C323.61,713.13,312.3,701.5,298.26,701.44Z" transform="translate(0 0)"/></g><g id="Graphic_42" data-name="Graphic 42"><path class="cls-14" d="M279.26,688.91h-127v333h127c14,0,25.35-11.69,25.4-26.14V715C304.56,700.59,293.25,689,279.26,688.91Z" transform="translate(0 0)"/></g><g id="Graphic_43" data-name="Graphic 43"><path class="cls-10" d="M25.4,688.91H279.26c14,0,25.4,11.68,25.4,26.13v261.2c0,14.45-11.36,26.14-25.4,26.14H25.4a25.24,25.24,0,0,1-18-7.65A26.54,26.54,0,0,1,0,976.24V715C0,700.59,11.36,688.91,25.4,688.91Z" transform="translate(0 0)"/></g><g id="Graphic_44" data-name="Graphic 44"><path class="cls-2" d="M72,933.91,124,851,76.35,768.5h38.31l26,52.7c2.37,5,4,8.71,5,11.21H146c1.7-4,3.51-7.86,5.37-11.63l27.77-52.28h35.21l-48.89,82,50.13,83.41H178.17l-30-57.91a46.32,46.32,0,0,1-3.56-7.7h-.46a39.73,39.73,0,0,1-3.46,7.49l-30.93,58.12Z" transform="translate(0 0)"/></g></g></g></g><path class="cls-15" d="M1433.19,410.12H1292.44v35.27a35.32,35.32,0,0,0,35.27,34.94H1363q34.93,0,34.94-34.94h35.27q-8.25,70.2-70.21,70.21h-70.54q-28.85,0-49.53-20.69t-20.69-49.52V339.9q0-29.16,20.77-49.85t49.45-20.69H1363q28.83,0,49.52,20.85t20.69,49.69Zm-140.75-35.28H1363V339.9a35.27,35.27,0,0,0-70.54,0Z" transform="translate(0 0)"/><path class="cls-15" d="M1503.4,515.6V462.86q0-31.16,17.63-48.62t52.58-21.6q-35-4.11-52.58-21.75T1503.4,322.1V269.36h70.21V339.9A33.48,33.48,0,0,0,1584,364.54a35.11,35.11,0,0,0,49.69,0,33.34,33.34,0,0,0,10.47-24.64V269.36h70.21V322.1q0,31.15-17.55,48.79t-52.66,21.75q35.1,4.13,52.66,21.68t17.55,48.54V515.6h-70.21V445.39a35.27,35.27,0,0,0-70.54,0V515.6Z" transform="translate(0 0)"/><path class="cls-15" d="M1960.26,339.9h-34.94q-4.11-35.26-35.27-35.27a35.48,35.48,0,0,0-35.27,35.27V445.39a35.32,35.32,0,0,0,35.27,34.94q31.15,0,35.27-34.94h34.94q-4.27,70.2-70.21,70.21h-35.27q-28.85,0-49.53-20.69t-20.68-49.52V339.9q0-29.16,20.77-49.85t49.44-20.69h35.27Q1956.31,269.36,1960.26,339.9Z" transform="translate(0 0)"/><path class="cls-15" d="M2241.77,410.12H2101v35.27a35.32,35.32,0,0,0,35.27,34.94h35.27q34.93,0,34.94-34.94h35.27q-8.25,70.2-70.21,70.21H2101q-28.84,0-49.53-20.69t-20.69-49.52V339.9q0-29.16,20.77-49.85T2101,269.36h70.54q28.83,0,49.52,20.85t20.69,49.69ZM2101,374.84h70.54V339.9a35.27,35.27,0,0,0-70.54,0Z" transform="translate(0 0)"/><path class="cls-15" d="M2312,515.6V199.15h70.21V515.6Z" transform="translate(0 0)"/><path class="cls-15" d="M2452.73,234.42V199.15h70.21v35.27Zm0,281.18V269.36h70.21V515.6Z" transform="translate(0 0)"/><path class="cls-15" d="M2593.48,269.36h211v35.27l-140.75,175.7h140.75V515.6h-211V480.33l140.75-175.7H2593.48Z" transform="translate(0 0)"/><path class="cls-15" d="M3085.62,410.12H2944.86v35.27a35.32,35.32,0,0,0,35.27,34.94h35.27q34.95,0,34.94-34.94h35.28q-8.25,70.2-70.22,70.21h-70.54q-28.84,0-49.53-20.69t-20.68-49.52V339.9q0-29.16,20.77-49.85t49.44-20.69h70.54q28.84,0,49.53,20.85t20.69,49.69Zm-140.76-35.28h70.54V339.9a35.27,35.27,0,0,0-70.54,0Z" transform="translate(0 0)"/><path class="cls-15" d="M3155.82,410.12V374.84h175.7v35.28Z" transform="translate(0 0)"/><path class="cls-15" d="M3577.75,339.9h-34.94q-4.12-35.26-35.27-35.27a35.46,35.46,0,0,0-35.27,35.27V445.39a35.32,35.32,0,0,0,35.27,34.94q31.15,0,35.27-34.94h34.94q-4.29,70.2-70.21,70.21h-35.27q-28.84,0-49.53-20.69t-20.68-49.52V339.9q0-29.16,20.76-49.85t49.45-20.69h35.27Q3573.8,269.36,3577.75,339.9Z" transform="translate(0 0)"/><path class="cls-15" d="M3824,339.9H3789q-4.61-35.26-33.29-35.27-18.63,0-28,7.34t-9.39,21.84q0,15.17,51.25,42.52,41.7,22.41,48,37.16a78.63,78.63,0,0,1,6.34,31.4q0,29.34-20.68,50t-49.53,20.69H3718.5q-70.22,0-70.21-70.21h35.27q4.13,35.1,33,35.1,18.63,0,28-7.41t9.4-21.93q0-14.82-51.1-42.52-41.87-22.25-48.2-37.08a78.65,78.65,0,0,1-6.35-31.32q0-29.49,20.77-50.18t49.44-20.69h35.27Q3819.7,269.36,3824,339.9Z" transform="translate(0 0)"/><path class="cls-16" d="M1252,793.35l-11.14,33.89h-14.45L1263.1,719.4h16.75l36.83,107.84h-14.89l-11.55-33.89Zm35.41-10.89-10.67-31c-2.34-7.06-4-13.48-5.56-19.67h-.38c-1.54,6.3-3.22,12.89-5.34,19.48l-10.63,31.23Z" transform="translate(0 0)"/><path class="cls-16" d="M1441.73,823.78c-5,2.53-15.36,5.14-28.51,5.14-30.37,0-53.16-19.22-53.16-54.62,0-33.85,22.82-56.58,56.3-56.58,13.32,0,21.92,2.82,25.59,4.74l-3.43,11.34a51.34,51.34,0,0,0-21.7-4.44c-25.32,0-42.06,16.18-42.06,44.49,0,26.39,15.2,43.25,41.32,43.25,8.57,0,17.19-1.73,22.85-4.42Z" transform="translate(0 0)"/><path class="cls-16" d="M1462,827.24l4.15-31.34h-13.21v-9.48h14.66l3-23.16h-13.85v-9.41H1472l4.12-30.61h9.41l-4,30.61h16.68l4.12-30.61h9.44l-4,30.61h13.1v9.41h-14.48l-3,23.16h13.79v9.42h-15.24l-4.1,31.4h-9.62l4.14-31.4h-16.59l-4.09,31.4Zm31.77-40.82,3-23.16H1480.1l-3,23.16Z" transform="translate(0 0)"/><path class="cls-16" d="M1572.15,775.07c0-9.87-.27-17.9-.64-25.21h12.57l.78,13.19h.32c5.62-9.44,14.89-14.95,27.46-14.95,18.74,0,32.85,15.78,32.85,39.27,0,27.89-17.06,41.63-35.18,41.63-10.35,0-19.25-4.5-23.85-12.19h-.33v42.11h-14Zm14,20.68a26.53,26.53,0,0,0,.61,5.72,21.63,21.63,0,0,0,21,16.51c14.92,0,23.53-12.24,23.53-30,0-15.44-8.08-28.72-23-28.72-9.58,0-18.63,6.79-21.29,17.37a24.28,24.28,0,0,0-.91,5.71Z" transform="translate(0 0)"/><path class="cls-16" d="M1706.11,827.24l-1.24-9.77h-.42c-4.25,6-12.59,11.53-23.67,11.53-15.63,0-23.64-11.1-23.64-22.2,0-18.75,16.62-29,46.51-28.83v-1.64c0-6.29-1.77-17.94-17.62-17.85a37.66,37.66,0,0,0-20.16,5.76l-3.19-9.35c6.41-4.14,15.77-6.79,25.54-6.79,23.65,0,29.42,16.17,29.42,31.67v29a120.67,120.67,0,0,0,1.17,18.52Zm-2.18-39.51c-15.23-.33-32.67,2.41-32.67,17.37,0,9.24,6.08,13.48,13.14,13.48a19.39,19.39,0,0,0,18.86-13,14.59,14.59,0,0,0,.67-4.43Z" transform="translate(0 0)"/><path class="cls-16" d="M1795.51,824.44a53.46,53.46,0,0,1-22.2,4.48c-23.34,0-38.62-15.88-38.62-39.54,0-23.85,16.27-41.26,41.58-41.26,8.29,0,15.76,2.11,19.55,4.13l-3.12,10.81a34.19,34.19,0,0,0-16.46-3.73c-17.65,0-27.33,13.24-27.3,29.31,0,17.93,11.53,29,27,29a40.89,40.89,0,0,0,17.22-3.71Z" transform="translate(0 0)"/><path class="cls-16" d="M1826,785.34h.32c1.89-2.72,4.55-6.15,6.76-8.81l22.8-26.67h16.91l-29.89,31.82,34.07,45.56h-17.15l-26.62-37.19-7.2,8.06v29.13h-14V713.64h14Z" transform="translate(0 0)"/><path class="cls-16" d="M1932.83,827.24l-1.24-9.77h-.42c-4.25,6-12.59,11.53-23.67,11.53-15.64,0-23.64-11.1-23.64-22.2,0-18.75,16.61-29,46.5-28.83v-1.64c0-6.29-1.76-17.94-17.61-17.85a37.61,37.61,0,0,0-20.16,5.76l-3.2-9.35c6.41-4.14,15.78-6.79,25.54-6.79,23.66,0,29.42,16.17,29.42,31.67v29a120.67,120.67,0,0,0,1.17,18.52Zm-2.19-39.51c-15.23-.33-32.66,2.41-32.66,17.37,0,9.24,6.07,13.48,13.14,13.48a19.36,19.36,0,0,0,18.85-13,14.59,14.59,0,0,0,.67-4.43Z" transform="translate(0 0)"/><path class="cls-16" d="M2033.82,749.86c-.39,5.47-.65,11.75-.65,21.18V816c0,17.91-3.66,28.64-11.05,35.43-7.6,7-18.43,9.28-28.19,9.28-9.36,0-19.55-2.19-25.83-6.37l3.52-10.83a43.54,43.54,0,0,0,22.78,6.2c14.37,0,24.92-7.52,24.92-27.11v-8.63H2019c-4.23,7.27-12.66,13-24.59,13-19.29,0-33-16.41-33-37.85,0-26.24,17.07-41,34.94-41,13.43,0,20.69,6.91,24.14,13.35h.32l.58-11.59Zm-14.64,30.44a21.5,21.5,0,0,0-.78-6.3c-2.59-8.19-9.39-15-19.77-15-13.42,0-23,11.35-23,29.34,0,15.13,7.81,27.87,22.9,27.87a20.6,20.6,0,0,0,19.58-14.51,25,25,0,0,0,1.11-7.49Z" transform="translate(0 0)"/><path class="cls-16" d="M2064.36,791.09c.28,19,12.35,26.87,26.48,26.87,10.07,0,16.23-1.81,21.43-4l2.47,10c-4.92,2.25-13.53,4.93-25.82,4.93-23.78,0-38.07-15.84-38.07-39,0-23.45,13.81-41.77,36.41-41.77,25.24,0,31.84,22.15,31.84,36.39a34.54,34.54,0,0,1-.48,6.6ZM2105.55,781c.14-8.87-3.63-22.78-19.41-22.78-14.37,0-20.49,13-21.61,22.78Z" transform="translate(0 0)"/><path class="cls-16" d="M2240.6,787.81c0,28.65-19.88,41.19-38.48,41.19-21,0-37.2-15.3-37.2-39.86,0-25.9,17-41,38.43-41C2225.6,748.1,2240.6,764.24,2240.6,787.81Zm-61.35.9c0,17,9.72,29.75,23.45,29.75,13.5,0,23.58-12.61,23.58-30.17,0-13.09-6.59-29.65-23.32-29.65C2186.43,758.64,2179.25,774,2179.25,788.71Z" transform="translate(0 0)"/><path class="cls-16" d="M2259.77,827.24V760.52H2249V749.86h10.8v-3.73c0-10.91,2.51-20.79,9-27.11,5.27-5.1,12.35-7.14,18.81-7.14a30.51,30.51,0,0,1,12,2.26L2297.74,725a21.5,21.5,0,0,0-9-1.76c-11.88,0-15,10.54-15,22.48v4.19h18.7v10.66h-18.63v66.72Z" transform="translate(0 0)"/><path class="cls-16" d="M2355.93,727.58v22.28h20.22v10.66h-20.22v41.7c0,9.64,2.77,15.09,10.64,15.09a28.08,28.08,0,0,0,8.16-1l.64,10.69a35.8,35.8,0,0,1-12.58,1.94c-6.46,0-11.83-2.13-15.18-6-3.88-4.27-5.47-11.09-5.47-20.18V760.52h-12V749.86h12V731.22Z" transform="translate(0 0)"/><path class="cls-16" d="M2392,713.64h14v48.3h.32a27.72,27.72,0,0,1,10.12-9.93,28.31,28.31,0,0,1,14.41-3.91c10.43,0,27,6.36,27,33.06v46.08h-14V782.7c0-12.49-4.72-23-17.89-23-9.21,0-16.3,6.44-19,14a19.11,19.11,0,0,0-.94,6.7v46.77h-14Z" transform="translate(0 0)"/><path class="cls-16" d="M2488.67,791.09c.28,19,12.35,26.87,26.48,26.87,10.07,0,16.23-1.81,21.43-4l2.47,10c-4.92,2.25-13.52,4.93-25.82,4.93-23.77,0-38.07-15.84-38.07-39,0-23.45,13.81-41.77,36.41-41.77,25.24,0,31.84,22.15,31.84,36.39a33.73,33.73,0,0,1-.48,6.6ZM2529.86,781c.14-8.87-3.63-22.78-19.41-22.78-14.37,0-20.48,13-21.61,22.78Z" transform="translate(0 0)"/><path class="cls-16" d="M2677.48,822.4a98.08,98.08,0,0,1-33.16,5.92c-16.35,0-29.83-4.13-40.32-14.25-9.3-9-15-23.26-15-40,.05-32.17,22.17-55.71,58.3-55.71,12.47,0,22.34,2.74,27,4.94l-3.48,11.36C2665.05,732,2657.86,730,2647,730c-26.17,0-43.32,16.28-43.32,43.29,0,27.33,16.4,43.51,41.63,43.51,9.1,0,15.29-1.28,18.5-2.91V781.78H2642V770.64h35.51Z" transform="translate(0 0)"/><path class="cls-16" d="M2769.07,787.81c0,28.65-19.88,41.19-38.48,41.19-21,0-37.2-15.3-37.2-39.86,0-25.9,17-41,38.43-41C2754.07,748.1,2769.07,764.24,2769.07,787.81Zm-61.36.9c0,17,9.73,29.75,23.46,29.75,13.5,0,23.58-12.61,23.58-30.17,0-13.09-6.6-29.65-23.32-29.65C2714.9,758.64,2707.71,774,2707.71,788.71Z" transform="translate(0 0)"/><path class="cls-16" d="M2877,776.68H2835.2v39H2882v11.6H2821.2V719.4h58.3V731h-44.3v34.15H2877Z" transform="translate(0 0)"/><path class="cls-16" d="M2906,749.86l11.09,16.58c2.91,4.34,5.32,8.27,7.89,12.59h.35c2.57-4.54,5.15-8.56,7.83-12.74l10.75-16.43h15.33l-26.41,37.39,27.12,40H2944l-11.45-17.39c-3-4.5-5.56-8.85-8.29-13.48h-.35c-2.54,4.71-5.19,8.78-8.2,13.49l-11.12,17.38h-15.54l27.54-39.49-26.28-37.89Z" transform="translate(0 0)"/><path class="cls-16" d="M3026.36,824.44c-3.7,1.81-11.79,4.48-22.2,4.48-23.33,0-38.61-15.88-38.61-39.54,0-23.85,16.27-41.26,41.57-41.26,8.3,0,15.77,2.11,19.56,4.13l-3.13,10.81a34.11,34.11,0,0,0-16.45-3.73c-17.65,0-27.34,13.24-27.3,29.31,0,17.93,11.52,29,26.95,29a40.9,40.9,0,0,0,17.23-3.71Z" transform="translate(0 0)"/><path class="cls-16" d="M3049.78,791.09c.28,19,12.35,26.87,26.48,26.87,10.07,0,16.23-1.81,21.44-4l2.46,10c-4.92,2.25-13.52,4.93-25.82,4.93-23.77,0-38.07-15.84-38.07-39,0-23.45,13.81-41.77,36.41-41.77,25.24,0,31.85,22.15,31.85,36.39a33.57,33.57,0,0,1-.49,6.6ZM3091,781c.14-8.87-3.63-22.78-19.41-22.78-14.37,0-20.48,13-21.61,22.78Z" transform="translate(0 0)"/><path class="cls-16" d="M3122.07,713.64h14v113.6h-14Z" transform="translate(0 0)"/><path class="cls-16" d="M3175.55,728c0,4.79-3.36,8.75-9,8.75a8.4,8.4,0,0,1-8.5-8.75,8.55,8.55,0,0,1,8.75-8.75A8.43,8.43,0,0,1,3175.55,728Zm-15.72,99.26V749.86h14v77.38Z" transform="translate(0 0)"/><path class="cls-16" d="M3188.45,819l35-45.49c3.45-4.31,6.57-8,10.17-12.11v-.33h-42V749.86h59.11l-.08,8.78-34.59,45c-3.31,4.18-6.49,8.16-9.94,12V816h45.2v11.25h-62.82Z" transform="translate(0 0)"/><path class="cls-16" d="M3272.5,791.09c.28,19,12.35,26.87,26.48,26.87,10.07,0,16.23-1.81,21.43-4l2.47,10c-4.92,2.25-13.53,4.93-25.82,4.93-23.78,0-38.07-15.84-38.07-39,0-23.45,13.81-41.77,36.41-41.77,25.24,0,31.84,22.15,31.84,36.39a34.54,34.54,0,0,1-.48,6.6ZM3313.69,781c.14-8.87-3.63-22.78-19.41-22.78-14.37,0-20.49,13-21.61,22.78Z" transform="translate(0 0)"/><path class="cls-16" d="M3379.11,719.4h14v96.09h46.11v11.75h-60.11Z" transform="translate(0 0)"/><path class="cls-16" d="M3469.94,728c0,4.79-3.36,8.75-9,8.75a8.39,8.39,0,0,1-8.49-8.75,8.54,8.54,0,0,1,8.75-8.75A8.42,8.42,0,0,1,3469.94,728Zm-15.72,99.26V749.86h14v77.38Z" transform="translate(0 0)"/><path class="cls-16" d="M3491,827.24c.38-5.32.64-13.08.64-20V713.64h14v48.64h.32c4.94-8.7,13.9-14.18,26.38-14.18,19.23,0,32.74,16,32.67,39.41,0,27.75-17.58,41.49-34.84,41.49-11.17,0-20.09-4.39-25.93-14.48h-.38l-.71,12.72Zm14.63-31a22.31,22.31,0,0,0,.58,5.09c2.65,9.78,11,16.47,21.11,16.47,14.8,0,23.5-12,23.5-29.74,0-15.56-8-28.88-23.09-28.88-9.54,0-18.47,6.68-21.29,17.3a23,23,0,0,0-.81,5.85Z" transform="translate(0 0)"/><path class="cls-16" d="M3582.67,774c0-9.14-.23-16.92-.64-24.1h12.33l.54,15.18h.5c3.61-10.38,12.15-16.94,21.55-16.94a16,16,0,0,1,3.91.4v13.23a22.55,22.55,0,0,0-4.79-.4c-9.91,0-16.92,7.47-18.83,18a36.62,36.62,0,0,0-.57,6.57v41.34h-14Z" transform="translate(0 0)"/><path class="cls-16" d="M3677.12,827.24l-1.24-9.77h-.42c-4.25,6-12.59,11.53-23.67,11.53-15.64,0-23.64-11.1-23.64-22.2,0-18.75,16.61-29,46.5-28.83v-1.64c0-6.29-1.76-17.94-17.61-17.85a37.61,37.61,0,0,0-20.16,5.76l-3.2-9.35c6.41-4.14,15.78-6.79,25.54-6.79,23.66,0,29.42,16.17,29.42,31.67v29a120.67,120.67,0,0,0,1.17,18.52Zm-2.19-39.51c-15.23-.33-32.66,2.41-32.66,17.37,0,9.24,6.07,13.48,13.14,13.48a19.37,19.37,0,0,0,18.85-13,14.59,14.59,0,0,0,.67-4.43Z" transform="translate(0 0)"/><path class="cls-16" d="M3711.31,774c0-9.14-.23-16.92-.64-24.1H3723l.54,15.18h.5c3.61-10.38,12.15-16.94,21.55-16.94a16,16,0,0,1,3.91.4v13.23a22.55,22.55,0,0,0-4.79-.4c-9.91,0-16.92,7.47-18.83,18a36.62,36.62,0,0,0-.57,6.57v41.34h-14Z" transform="translate(0 0)"/><path class="cls-16" d="M3772.74,749.86l16.91,45.74c1.82,5.11,3.71,11.18,5,15.79h.39c1.38-4.56,3.09-10.49,4.94-16.1l15.31-45.43h14.93L3809,805c-10,26.61-16.92,40.15-26.5,48.53-7,6-13.82,8.41-17.25,9l-3.5-11.76a37,37,0,0,0,12.33-6.88,44.65,44.65,0,0,0,11.77-15.67,8.52,8.52,0,0,0,1.08-3.4,9.12,9.12,0,0,0-1-3.61l-28.53-71.37Z" transform="translate(0 0)"/></svg>
